<?xml version="1.0" encoding="utf-8"?>
<!-- Generator: Adobe Illustrator 25.4.1, SVG Export Plug-In . SVG Version: 6.00 Build 0)  -->
<svg version="1.1" id="Layer_1" xmlns="http://www.w3.org/2000/svg" xmlns:xlink="http://www.w3.org/1999/xlink" x="0px" y="0px"
	 viewBox="0 0 300 300" enable-background="new 0 0 300 300" xml:space="preserve">
<path id="path16" fill="#435363" d="M150.9,217.6c-37.2,0-67.6-30.3-67.6-67.6c0-37.3,30.3-67.6,67.6-67.6
	c30.8,0,56.7,20.7,64.9,48.8h26.1c-8.7-42.3-46.2-74.2-91-74.2c-51.2,0-92.9,41.7-92.9,92.9c0,51.2,41.7,92.9,92.9,92.9
	c44.8,0,82.3-31.9,91-74.2h-26.1C207.6,196.9,181.6,217.6,150.9,217.6"/>
<path id="path18" fill="#435363" d="M105.3,195.5c11.7,11.7,27.8,18.9,45.5,18.9v-26.9c-10.4,0-19.7-4.2-26.5-11L105.3,195.5
	L105.3,195.5z"/>
<path id="path20" fill="#F38B00" d="M86.4,150c0,9.2,2,18,5.5,25.9l24.6-10.8c-2-4.6-3.2-9.7-3.2-15.1c0-20.7,16.8-37.5,37.5-37.5
	V85.6C115.3,85.6,86.4,114.5,86.4,150"/>
<path id="path22" fill="#435363" d="M174.2,90l-9.8,25.1c8,3.1,14.6,8.9,18.9,16.2h29.2C206.7,112.3,192.5,97.1,174.2,90"/>
<path id="path24" fill="#F38B00" d="M164.4,184.9l9.8,25.1c18.3-7.1,32.5-22.4,38.3-41.3h-29.2C179.1,176.1,172.4,181.8,164.4,184.9
	"/>
<path id="path26" fill="#435363" d="M31.6,186c-0.4-1.4-0.8-2.8-1.2-4.3c0-0.1,0-0.2-0.1-0.3c-0.3-1.3-0.7-2.7-1-4
	c-0.1-0.3-0.1-0.5-0.2-0.8c-0.3-1.1-0.5-2.3-0.7-3.5c-0.1-0.5-0.2-1-0.3-1.6c-0.2-0.9-0.3-1.8-0.5-2.8c-0.1-0.8-0.2-1.6-0.3-2.4
	c-0.7-5.4-1.1-11-1.1-16.5H0.8c0,6.1,0.4,12.1,1.1,18.1l0,0c0,0.1,0,0.3,0.1,0.4c0.2,1.6,0.4,3.2,0.7,4.8c0.1,0.4,0.1,0.9,0.2,1.3
	c0.2,1.3,0.4,2.6,0.7,3.9c0.1,0.7,0.3,1.4,0.4,2.1c0.2,1,0.4,2.1,0.7,3.1c0.2,0.9,0.4,1.8,0.7,2.7c0.2,0.8,0.4,1.6,0.6,2.4
	c0.3,1.1,0.6,2.1,0.9,3.2c0.1,0.4,0.2,0.9,0.4,1.3h0c1.8,5.8,3.8,11.5,6.3,17l23.3-10.3C34.8,195.6,33.1,190.9,31.6,186L31.6,186
	L31.6,186z"/>
<path id="path28" fill="#F38B00" d="M150.9,274.6c-34.3,0-65.5-14-88-36.5l-18,18c27.1,27.1,64.6,44,106,44
	c76.5,0,139.6-57.3,148.8-131.2H274C264.9,228.6,213.2,274.6,150.9,274.6"/>
<path id="path30" fill="#F38B00" d="M150.9,25.4c27.9,0,53.7,9.2,74.5,24.8l15.2-20.4C215.5,11.1,184.5,0,150.9,0
	C87.2,0,32.8,39.6,11,95.6l23.7,9.2C52.9,58.4,98.1,25.4,150.9,25.4"/>
<path id="path32" fill="#435363" d="M274,131.2h25.7c-2.8-22.1-10.3-42.7-21.6-60.7l-21.6,13.5C265.3,98.2,271.4,114.1,274,131.2"/>
<path id="path34" fill="#F38B00" d="M245.1,131.2h25.8c-6.7-43.2-36.3-78.9-76-94.4l-9.2,23.7C215.8,72.3,238.6,98.8,245.1,131.2"/>
<path id="path36" fill="#435363" d="M150.9,53.9L150.9,53.9l0-25.4h0c-51.4,0-95.5,32.1-113.2,77.4l23.6,9.2
	C75.3,79.4,110.2,53.9,150.9,53.9"/>
<path id="path38" fill="#F38B00" d="M54.8,150L54.8,150H29.4c0,51,31.6,94.8,76.3,112.7l9.4-23.6C79.8,225,54.8,190.4,54.8,150"/>
<path id="path40" fill="#435363" d="M150.9,246.1v25.4c60.6,0,110.9-44.6,120-102.7h-25.8C236.3,212.8,197.4,246.1,150.9,246.1"/>
</svg>
