<?xml version="1.0" encoding="utf-8"?>
<!-- Generator: Adobe Illustrator 25.4.1, SVG Export Plug-In . SVG Version: 6.00 Build 0)  -->
<svg version="1.1" id="Layer_1" xmlns="http://www.w3.org/2000/svg" xmlns:xlink="http://www.w3.org/1999/xlink" x="0px" y="0px"
	 viewBox="0 0 300 300" enable-background="new 0 0 300 300" xml:space="preserve">
<path fill="#FFFFFF" d="M300,157.1c0-25.2-15.7-47-38.9-55.6c1-5.3,1.5-10.7,1.5-16.2c0-46.8-38-84.7-84.7-84.7
	c-27.2,0-52.7,13-68.6,35.3c-7.8-6.1-17.4-9.3-27.4-9.3c-24.7,0-45.1,20.1-45.1,45.1c0,5.4,1,10.8,2.7,15.7
	C15.9,95.4,0,117.9,0,142.9c0,25.2,15.7,47.3,39.2,55.8c-1,5.1-1.5,10.5-1.5,16.2c0,46.5,38,84.5,84.5,84.5
	c27.4,0,52.7-13.2,68.6-35.3c7.8,6.1,17.6,9.6,27.7,9.6c24.7,0,45.1-20.1,45.1-45.1c0-5.4-1-10.8-2.7-15.7
	C283.8,204.6,300,182.1,300,157.1L300,157.1z"/>
<path fill="#F4BD19" d="M117.3,128.9l66.9,30.6l67.6-59.3c1-4.9,1.5-9.9,1.5-14.9c0-41.6-33.8-75.4-75.4-75.4
	c-25,0-48.2,12.2-62.2,32.8L104.3,101L117.3,128.9L117.3,128.9z"/>
<path fill="#3CBEB1" d="M48,199.7c-1,4.9-1.5,10-1.5,15.2c0,41.6,34,75.7,75.7,75.7c25.2,0,48.5-12.5,62.7-33.1l11-58.3L181,170.8
	l-67.1-30.6L48,199.7L48,199.7z"/>
<path fill="#E9478C" d="M47.5,83.9l45.8,10.8l10.3-52.2c-6.4-4.9-14-7.3-22-7.3c-19.8,0-36.2,16.2-36.2,36.2
	C45.3,75.5,46,80,47.5,83.9L47.5,83.9z"/>
<path fill="#2C458F" d="M43.6,94.9c-20.6,6.6-34.8,26.5-34.8,48c0,21.1,13,39.9,32.6,47.3l64.4-58.3l-11.7-25.2L43.6,94.9L43.6,94.9
	z"/>
<path fill="#95C63D" d="M196.7,257.3c6.4,4.9,14,7.6,21.8,7.6c19.8,0,36.2-16.2,36.2-36.2c0-4.4-0.7-8.6-2.2-12.5l-45.8-10.8
	L196.7,257.3L196.7,257.3z"/>
<path fill="#176655" d="M206,193.3l50.4,11.7c20.6-6.9,34.8-26.5,34.8-48c0-21.1-13-39.7-32.6-47.3l-66.1,57.8L206,193.3L206,193.3z
	"/>
</svg>
