<?xml version="1.0" encoding="utf-8"?>
<!-- Generator: Adobe Illustrator 25.4.1, SVG Export Plug-In . SVG Version: 6.00 Build 0)  -->
<svg version="1.1" id="Layer_1" xmlns="http://www.w3.org/2000/svg" xmlns:xlink="http://www.w3.org/1999/xlink" x="0px" y="0px"
	 viewBox="0 0 300 300" enable-background="new 0 0 300 300" xml:space="preserve">
<g id="layer1" transform="translate(-6.3260942,-174.7524)">
	<g id="g3052">
		<path id="path3055" fill="#326CE5" d="M155.3,179.5c-2.6,0.1-5.2,0.8-7.6,1.9L43.6,231.2c-5.5,2.6-9.4,7.5-10.8,13.4L7.1,356.3
			c-1.2,5.2-0.2,10.7,2.7,15.1c0.4,0.5,0.7,1.1,1.1,1.6l72,89.6c3.8,4.7,9.5,7.4,15.6,7.4l115.5,0c6.1,0,11.8-2.7,15.6-7.4l72-89.6
			c3.8-4.7,5.2-10.8,3.8-16.7l-25.7-111.7c-1.3-5.9-5.3-10.8-10.8-13.4l-104.1-49.7C161.9,180,158.6,179.4,155.3,179.5z"/>
		<path id="path3059" fill="#FFFFFF" stroke="#FFFFFF" stroke-width="0.25" d="M156.3,217.5c-3.4,0-6.2,3.1-6.2,6.9
			c0,0.1,0,0.1,0,0.2c0,0.5,0,1.1,0,1.6c0.1,2.2,0.6,3.9,0.9,5.9c0.5,4.3,1,8,0.7,11.3c-0.3,1.3-1.2,2.4-2,3.2l-0.1,2.6
			c-3.7,0.3-7.5,0.9-11.3,1.7c-16.2,3.7-30.1,12-40.7,23.3c-0.7-0.5-1.9-1.3-2.2-1.6c-1.1,0.2-2.2,0.5-3.7-0.4
			c-2.8-1.9-5.3-4.5-8.4-7.6c-1.4-1.5-2.4-2.9-4.1-4.4c-0.4-0.3-1-0.8-1.4-1.1c-1.3-1-2.9-1.6-4.3-1.6c-1.9-0.1-3.8,0.7-5,2.2
			c-2.1,2.7-1.5,6.8,1.5,9.2c0,0,0.1,0,0.1,0.1c0.4,0.3,0.9,0.8,1.3,1c1.8,1.3,3.4,2,5.2,3c3.7,2.3,6.8,4.2,9.3,6.5
			c1,1,1.1,2.8,1.3,3.6l2,1.8c-10.7,16.1-15.6,36-12.7,56.2l-2.6,0.8c-0.7,0.9-1.7,2.3-2.7,2.7c-3.2,1-6.8,1.4-11.2,1.8
			c-2,0.2-3.8,0.1-6,0.5c-0.5,0.1-1.1,0.3-1.7,0.4c0,0,0,0-0.1,0c0,0-0.1,0-0.1,0c-3.7,0.9-6,4.3-5.3,7.6c0.8,3.3,4.3,5.3,8,4.6
			c0,0,0.1,0,0.1,0c0,0,0.1,0,0.1,0c0.5-0.1,1.2-0.2,1.6-0.4c2.1-0.6,3.7-1.4,5.6-2.1c4.1-1.5,7.5-2.7,10.9-3.2
			c1.4-0.1,2.9,0.9,3.6,1.3l2.7-0.5c6.2,19.4,19.3,35,35.9,44.9l-1.1,2.7c0.4,1.1,0.9,2.5,0.6,3.5c-1.2,3.1-3.3,6.4-5.6,10.1
			c-1.1,1.7-2.3,3-3.3,5c-0.2,0.5-0.6,1.2-0.8,1.7c-1.6,3.4-0.4,7.4,2.6,8.9c3.1,1.5,6.9-0.1,8.6-3.5c0,0,0,0,0,0c0,0,0,0,0,0
			c0.2-0.5,0.6-1.1,0.8-1.6c0.9-2,1.2-3.8,1.8-5.7c1.6-4.1,2.6-8.5,4.8-11.2c0.6-0.7,1.6-1,2.7-1.3l1.4-2.6
			c14.5,5.5,30.6,7,46.8,3.4c3.7-0.8,7.2-1.9,10.7-3.2c0.4,0.7,1.1,2.1,1.3,2.4c1.1,0.3,2.2,0.5,3.2,1.9c1.7,2.9,2.9,6.3,4.3,10.5
			c0.6,2,0.9,3.7,1.8,5.7c0.2,0.5,0.5,1.1,0.8,1.6c1.7,3.4,5.5,5,8.6,3.5c3.1-1.5,4.3-5.4,2.6-8.9c-0.2-0.5-0.6-1.2-0.8-1.7
			c-1-2-2.2-3.3-3.3-5c-2.4-3.7-4.3-6.8-5.5-9.9c-0.5-1.6,0.1-2.6,0.5-3.7c-0.2-0.3-0.7-1.8-1-2.5c17.2-10.2,29.9-26.4,35.9-45.2
			c0.8,0.1,2.2,0.4,2.7,0.5c0.9-0.6,1.8-1.4,3.5-1.3c3.3,0.5,6.7,1.7,10.9,3.2c1.9,0.7,3.5,1.6,5.6,2.2c0.5,0.1,1.1,0.2,1.6,0.3
			c0,0,0.1,0,0.1,0c0,0,0.1,0,0.1,0c3.7,0.8,7.3-1.2,8-4.6c0.8-3.3-1.6-6.7-5.3-7.6c-0.5-0.1-1.3-0.3-1.8-0.4
			c-2.2-0.4-3.9-0.3-6-0.5c-4.4-0.5-8-0.8-11.2-1.8c-1.3-0.5-2.2-2.1-2.7-2.7l-2.5-0.7c1.3-9.4,1-19.3-1.3-29.1
			c-2.3-9.9-6.3-19-11.7-27c0.6-0.6,1.9-1.7,2.2-2c0.1-1.1,0-2.3,1.2-3.5c2.5-2.3,5.5-4.2,9.3-6.5c1.8-1,3.4-1.7,5.2-3
			c0.4-0.3,0.9-0.8,1.4-1.1c3-2.4,3.7-6.5,1.5-9.2c-2.1-2.7-6.3-2.9-9.3-0.6c-0.4,0.3-1,0.8-1.4,1.1c-1.7,1.4-2.7,2.9-4.1,4.4
			c-3.1,3.1-5.6,5.7-8.4,7.6c-1.2,0.7-3,0.5-3.8,0.4l-2.4,1.7c-13.5-14.2-31.9-23.2-51.7-25c-0.1-0.8-0.1-2.3-0.1-2.8
			c-0.8-0.8-1.8-1.4-2-3.1c-0.3-3.3,0.2-7,0.7-11.3c0.3-2,0.8-3.7,0.9-5.9c0-0.5,0-1.2,0-1.8C162.5,220.6,159.8,217.5,156.3,217.5
			L156.3,217.5z M148.5,265.9l-1.9,32.7l-0.1,0.1c-0.1,2.9-2.5,5.3-5.5,5.3c-1.2,0-2.3-0.4-3.2-1.1l-0.1,0l-26.8-19
			c8.2-8.1,18.8-14.1,30.9-16.8C144.1,266.5,146.3,266.1,148.5,265.9z M164.1,265.9c14.2,1.7,27.3,8.2,37.3,18l-26.6,18.9l-0.1,0
			c-2.4,1.7-5.7,1.3-7.5-1c-0.8-0.9-1.2-2.1-1.2-3.2l0,0L164.1,265.9z M101.2,296.1l24.5,21.9l0,0.1c2.2,1.9,2.5,5.3,0.7,7.6
			c-0.8,0.9-1.8,1.6-2.8,1.9l0,0.1l-31.4,9.1C90.5,322.1,94,307.9,101.2,296.1z M211.2,296.1c3.6,5.9,6.4,12.5,8,19.6
			c1.6,7,2,14.1,1.4,20.9l-31.5-9.1l0-0.1c-2.8-0.8-4.6-3.6-3.9-6.5c0.3-1.2,0.9-2.2,1.7-2.9l0-0.1L211.2,296.1L211.2,296.1z
			 M151.3,319.6h10l6.2,7.8l-2.2,9.7l-9,4.3l-9-4.3l-2.2-9.7L151.3,319.6z M183.4,346.3c0.4,0,0.9,0,1.3,0.1l0.1-0.1l32.4,5.5
			c-4.7,13.3-13.8,24.9-26,32.6L178.6,354l0-0.1c-1.2-2.7,0-5.8,2.7-7.1C182,346.5,182.7,346.3,183.4,346.3L183.4,346.3z
			 M128.9,346.4c2.5,0,4.7,1.8,5.3,4.3c0.3,1.2,0.1,2.3-0.3,3.4l0.1,0.1l-12.5,30.1c-11.6-7.5-20.9-18.7-25.9-32.4l32.2-5.5l0.1,0.1
			C128.2,346.4,128.6,346.4,128.9,346.4L128.9,346.4z M156.1,359.6c0.9,0,1.7,0.1,2.6,0.5c1.1,0.5,1.9,1.4,2.5,2.3h0.1l15.9,28.6
			c-2.1,0.7-4.2,1.3-6.3,1.8c-12.1,2.8-24.2,1.9-35.2-1.8l15.8-28.6h0C152.4,360.7,154.2,359.7,156.1,359.6z"/>
	</g>
</g>
</svg>
