<?xml version="1.0" encoding="utf-8"?>
<!-- Generator: Adobe Illustrator 25.4.1, SVG Export Plug-In . SVG Version: 6.00 Build 0)  -->
<svg version="1.1" id="Layer_1" focusable="false" xmlns="http://www.w3.org/2000/svg" xmlns:xlink="http://www.w3.org/1999/xlink"
	 x="0px" y="0px" viewBox="0 0 384 512" style="enable-background:new 0 0 384 512;" xml:space="preserve">
<style type="text/css">
	.st0{fill:#FFFFFF;}
</style>
<path class="st0" d="M384,144c0-44.2-35.8-80-80-80s-80,35.8-80,80c0,36.4,24.3,67.1,57.5,76.8c-0.6,16.1-4.2,28.5-11,36.9
	c-15.4,19.2-49.3,22.4-85.2,25.7c-28.2,2.6-57.4,5.4-81.3,16.9v-144c32.5-10.2,56-40.5,56-76.3c0-44.2-35.8-80-80-80S0,35.8,0,80
	c0,35.8,23.5,66.1,56,76.3v199.3C23.5,365.9,0,396.2,0,432c0,44.2,35.8,80,80,80s80-35.8,80-80c0-34-21.2-63.1-51.2-74.6
	c3.1-5.2,7.8-9.8,14.9-13.4c16.2-8.2,40.4-10.4,66.1-12.8c42.2-3.9,90-8.4,118.2-43.4c14-17.4,21.1-39.8,21.6-67.9
	C361.2,209.1,384,179.2,384,144L384,144z M80,64c8.8,0,16,7.2,16,16s-7.2,16-16,16s-16-7.2-16-16S71.2,64,80,64z M80,448
	c-8.8,0-16-7.2-16-16s7.2-16,16-16s16,7.2,16,16S88.8,448,80,448z M304,128c8.8,0,16,7.2,16,16s-7.2,16-16,16s-16-7.2-16-16
	S295.2,128,304,128z"/>
</svg>
