<?xml version="1.0" encoding="utf-8"?>
<!-- Generator: Adobe Illustrator 25.4.1, SVG Export Plug-In . SVG Version: 6.00 Build 0)  -->
<svg version="1.1" id="Layer_1" xmlns="http://www.w3.org/2000/svg" xmlns:xlink="http://www.w3.org/1999/xlink" x="0px" y="0px"
	 viewBox="0 0 300 300" enable-background="new 0 0 300 300" xml:space="preserve">
<path fill-rule="evenodd" clip-rule="evenodd" fill="#FFFFFF" d="M148.3,44.4C89.6,44.4,42.1,92,42.1,150.6
	c0,46.9,30.4,86.7,72.6,100.8c5.3,1,7.2-2.3,7.2-5.1c0-2.5-0.1-9.2-0.1-18.1C92.3,234.6,86,213.9,86,213.9
	c-4.8-12.3-11.8-15.5-11.8-15.5c-9.6-6.6,0.7-6.5,0.7-6.5c10.7,0.8,16.3,10.9,16.3,10.9c9.5,16.2,24.9,11.5,30.9,8.8
	c1-6.9,3.7-11.5,6.7-14.2c-23.6-2.7-48.4-11.8-48.4-52.5c0-11.6,4.1-21.1,10.9-28.5c-1.1-2.7-4.7-13.5,1-28.1c0,0,8.9-2.9,29.2,10.9
	c8.5-2.4,17.6-3.5,26.6-3.6c9,0,18.1,1.2,26.6,3.6C195.1,85.6,204,88.5,204,88.5c5.8,14.6,2.1,25.4,1.1,28.1
	c6.8,7.4,10.9,16.9,10.9,28.5c0,40.8-24.8,49.8-48.5,52.4c3.8,3.3,7.2,9.8,7.2,19.7c0,14.2-0.1,25.6-0.1,29.1c0,2.8,1.9,6.1,7.3,5.1
	c42.2-14.1,72.6-53.8,72.6-100.7C254.4,92,206.9,44.4,148.3,44.4z"/>
</svg>
